<svg xmlns="http://www.w3.org/2000/svg" version="1.1" xmlns:xlink="http://www.w3.org/1999/xlink" xmlns:svgjs="http://svgjs.dev/svgjs" width="1500" height="250" viewBox="0 0 1500 250"><g transform="matrix(1,0,0,1,-0.9090909090911055,0.5241418245884688)"><svg viewBox="0 0 396 66" data-background-color="#ffffff" preserveAspectRatio="xMidYMid meet" height="250" width="1500" xmlns="http://www.w3.org/2000/svg" xmlns:xlink="http://www.w3.org/1999/xlink"><g id="tight-bounds" transform="matrix(1,0,0,1,0.24000000000003752,-0.1383734416913569)"><svg viewBox="0 0 395.5199999999999 66.27674688338271" height="66.27674688338271" width="395.5199999999999"><g><svg viewBox="0 0 504.782603604815 84.58573232769832" height="66.27674688338271" width="395.5199999999999"><g transform="matrix(1,0,0,1,0,11.690213368010408)"><svg viewBox="0 0 395.52 61.20530559167751" height="61.20530559167751" width="395.52"><g id="textblocktransform"><svg viewBox="0 0 395.52 61.20530559167751" height="61.20530559167751" width="395.52" id="textblock"><g><svg viewBox="0 0 395.52 61.20530559167751" height="61.20530559167751" width="395.52"><g transform="matrix(1,0,0,1,0,0)"><svg width="395.52" viewBox="1.8 -35 230.67999999999998 35.7" height="61.20530559167751" data-palette-color="#49977d"><path d="M27.6-17.75Q35.25-15.95 35.25-9.35L35.25-9.35Q35.25-4.85 31.85-2.43 28.45 0 22.15 0L22.15 0 1.8 0 1.8-4.15 8.25-4.15 8.25-30.15 1.8-30.15 1.8-34.3 21.35-34.3Q26.8-34.3 29.78-31.85 32.75-29.4 32.75-25.4L32.75-25.4Q32.75-22.7 31.38-20.78 30-18.85 27.6-17.75L27.6-17.75ZM21-30.15L13.35-30.15 13.35-19.2 20.1-19.2Q23.6-19.2 25.58-20.58 27.55-21.95 27.55-24.8L27.55-24.8Q27.55-27.55 25.7-28.85 23.85-30.15 21-30.15L21-30.15ZM21.65-4.15Q30.05-4.15 30.05-9.75L30.05-9.75Q30.05-12.65 27.83-14 25.6-15.35 21.6-15.4L21.6-15.4 13.35-15.4 13.35-4.15 21.65-4.15ZM52.7 0.7Q49.25 0.7 46.25-0.85 43.25-2.4 41.47-5.25 39.7-8.1 39.7-11.75L39.7-11.75Q39.7-15.45 41.47-18.28 43.25-21.1 46.25-22.65 49.25-24.2 52.7-24.2L52.7-24.2Q56.1-24.2 59.07-22.65 62.05-21.1 63.85-18.25 65.65-15.4 65.65-11.75L65.65-11.75Q65.65-8.1 63.9-5.25 62.15-2.4 59.17-0.85 56.2 0.7 52.7 0.7L52.7 0.7ZM52.7-3.25Q54.95-3.25 56.75-4.3 58.55-5.35 59.57-7.28 60.6-9.2 60.6-11.75L60.6-11.75Q60.6-14.3 59.57-16.23 58.55-18.15 56.75-19.2 54.95-20.25 52.7-20.25L52.7-20.25Q49.25-20.25 47.02-17.93 44.8-15.6 44.8-11.75L44.8-11.75Q44.8-7.9 47.02-5.58 49.25-3.25 52.7-3.25L52.7-3.25ZM82.75 0.7Q79.3 0.7 76.3-0.85 73.3-2.4 71.52-5.25 69.75-8.1 69.75-11.75L69.75-11.75Q69.75-15.45 71.52-18.28 73.3-21.1 76.3-22.65 79.3-24.2 82.75-24.2L82.75-24.2Q86.15-24.2 89.12-22.65 92.1-21.1 93.9-18.25 95.7-15.4 95.7-11.75L95.7-11.75Q95.7-8.1 93.95-5.25 92.2-2.4 89.22-0.85 86.25 0.7 82.75 0.7L82.75 0.7ZM82.75-3.25Q85-3.25 86.8-4.3 88.6-5.35 89.62-7.28 90.65-9.2 90.65-11.75L90.65-11.75Q90.65-14.3 89.62-16.23 88.6-18.15 86.8-19.2 85-20.25 82.75-20.25L82.75-20.25Q79.3-20.25 77.07-17.93 74.85-15.6 74.85-11.75L74.85-11.75Q74.85-7.9 77.07-5.58 79.3-3.25 82.75-3.25L82.75-3.25ZM129.19-5.4L131.74-2.5Q130.49-1 128.94-0.15 127.39 0.7 125.24 0.7L125.24 0.7Q121.99 0.7 119.64-1.75 117.29-4.2 116.44-8.65L116.44-8.65Q114.34-8.7 112.49-9.22 110.64-9.75 108.59-10.7L108.59-10.7 108.59-3.95 113.54-3.95 113.54 0 98.54 0 98.54-3.95 103.79-3.95 103.79-30.35 98.54-30.35 98.54-34.3 108.59-34.3 108.59-19.3Q113.59-24 118.94-24L118.94-24Q122.54-24 124.97-22.1 127.39-20.2 127.39-16.7L127.39-16.7Q127.39-13.9 125.49-11.9 123.59-9.9 120.64-9.1L120.64-9.1Q121.34-6.3 122.59-4.98 123.84-3.65 125.44-3.65L125.44-3.65Q127.64-3.65 129.19-5.4L129.19-5.4ZM108.59-13.9Q112.44-12.25 116.14-12.25L116.14-12.25Q118.74-12.35 120.54-13.43 122.34-14.5 122.34-16.45L122.34-16.45Q122.34-18.15 121.12-19.05 119.89-19.95 117.74-19.95L117.74-19.95Q115.74-19.95 113.37-18.9 110.99-17.85 108.59-15.85L108.59-15.85 108.59-13.9ZM157.59-17.75Q165.24-15.95 165.24-9.35L165.24-9.35Q165.24-4.85 161.84-2.43 158.44 0 152.14 0L152.14 0 131.79 0 131.79-4.15 138.24-4.15 138.24-30.15 131.79-30.15 131.79-34.3 151.34-34.3Q156.79-34.3 159.77-31.85 162.74-29.4 162.74-25.4L162.74-25.4Q162.74-22.7 161.37-20.78 159.99-18.85 157.59-17.75L157.59-17.75ZM150.99-30.15L143.34-30.15 143.34-19.2 150.09-19.2Q153.59-19.2 155.56-20.58 157.54-21.95 157.54-24.8L157.54-24.8Q157.54-27.55 155.69-28.85 153.84-30.15 150.99-30.15L150.99-30.15ZM151.64-4.15Q160.04-4.15 160.04-9.75L160.04-9.75Q160.04-12.65 157.81-14 155.59-15.35 151.59-15.4L151.59-15.4 143.34-15.4 143.34-4.15 151.64-4.15ZM176.44-28.9Q174.84-28.9 173.74-29.75 172.64-30.6 172.64-31.9L172.64-31.9Q172.64-33.25 173.74-34.13 174.84-35 176.44-35L176.44-35Q178.14-35 179.24-34.13 180.34-33.25 180.34-31.9L180.34-31.9Q180.34-30.6 179.24-29.75 178.14-28.9 176.44-28.9L176.44-28.9ZM179.44-3.95L184.79-3.95 184.79 0 169.24 0 169.24-3.95 174.54-3.95 174.54-19.6 169.24-19.6 169.24-23.55 179.44-23.55 179.44-3.95ZM205.34-5.35L207.04-1.65Q205.19-0.55 203.41 0.05 201.64 0.65 199.34 0.65L199.34 0.65Q195.49 0.65 193.21-1.78 190.94-4.2 190.94-8.7L190.94-8.7 190.94-19.6 185.69-19.6 185.69-23.55 190.94-23.55 190.94-30.1 195.84-30.1 195.84-23.55 203.64-23.55 203.64-19.6 195.84-19.6 195.84-8.65Q195.84-6.1 196.99-4.9 198.14-3.7 200.09-3.7L200.09-3.7Q201.49-3.7 202.74-4.13 203.99-4.55 205.34-5.35L205.34-5.35ZM230.38-6.7L232.48-3.5Q227.68 0.7 221.53 0.7L221.53 0.7Q218.18 0.7 215.18-0.7 212.18-2.1 210.33-4.8 208.48-7.5 208.48-11.2L208.48-11.2Q208.48-15.15 210.38-18.1 212.28-21.05 215.33-22.63 218.38-24.2 221.73-24.2L221.73-24.2Q224.68-24.2 227.01-23.25 229.33-22.3 230.66-20.6 231.98-18.9 231.98-16.7L231.98-16.7Q231.98-13.4 229.16-11.58 226.33-9.75 222.38-9.75L222.38-9.75Q219.83-9.75 217.63-10.28 215.43-10.8 213.18-11.8L213.18-11.8 213.18-11.35Q213.18-9 214.31-7.2 215.43-5.4 217.33-4.45 219.23-3.5 221.48-3.5L221.48-3.5Q226.58-3.5 230.38-6.7L230.38-6.7ZM222.08-20.3Q219.38-20.3 217.06-18.75 214.73-17.2 213.73-14.55L213.73-14.55Q217.53-13.2 221.33-13.2L221.33-13.2Q223.83-13.2 225.46-14.13 227.08-15.05 227.08-16.7L227.08-16.7Q227.08-18.3 225.68-19.3 224.28-20.3 222.08-20.3L222.08-20.3Z" opacity="1" transform="matrix(1,0,0,1,0,0)" fill="#49977d" class="wordmark-text-0" data-fill-palette-color="primary" id="text-0"></path></svg></g></svg></g></svg></g></svg></g><g transform="matrix(1,0,0,1,409.96910372286084,0)"><svg viewBox="0 0 94.81349988195416 84.58573232769832" height="84.58573232769832" width="94.81349988195416"><g><svg xmlns="http://www.w3.org/2000/svg" xmlns:xlink="http://www.w3.org/1999/xlink" version="1.1" x="0" y="0" viewBox="8.386999999999999 13.004999999999999 84.192 75.11" enable-background="new 0 0 100 100" xml:space="preserve" height="84.58573232769832" width="94.81349988195416" class="icon-icon-0" data-fill-palette-color="accent" id="icon-0"><g fill="#49977d" data-fill-palette-color="accent"><path d="M49.569 22.967c-9.975-5.691-20.677-9.125-31.045-9.962v58.351c10.367 0.814 21.05 4.154 31.045 9.699V22.967z" fill="#49977d" data-fill-palette-color="accent"></path><path d="M82.444 13.005c-10.368 0.838-21.071 4.271-31.045 9.962v58.087c9.993-5.545 20.679-8.885 31.045-9.699V13.005z" fill="#49977d" data-fill-palette-color="accent"></path><path d="M49.229 84.073c0.814 0.278 1.671 0.29 2.485 0.012 11.657-5.043 23.865-7.313 35.798-6.79V19.524c-1.074-0.048-2.155-0.059-3.24-0.055v53.594l-0.852 0.056c-10.672 0.697-21.732 4.177-32.021 10.048-0.594 0.203-1.237 0.203-1.83 0-10.29-5.871-21.349-9.351-32.021-10.048l-0.854-0.056V19.469c-1.084-0.004-2.166 0.006-3.239 0.055v57.771C25.387 76.771 37.569 79.03 49.229 84.073z" fill="#49977d" data-fill-palette-color="accent"></path><path d="M92.579 26.009c-1.07-0.149-2.157-0.228-3.237-0.335v53.55l-0.968-0.056c-12.195-0.699-25.06 1.777-36.975 7.065l-0.916 0.381-0.915-0.381c-11.917-5.288-24.781-7.765-36.976-7.065l-0.967 0.056v-53.55c-1.081 0.108-2.168 0.187-3.238 0.335v58.707c0.594 0.307 1.044 0.748 1.044 0.748 12.951-1.75 26.393-1.536 39.18 2.651 0.588-0.058 1.212-0.095 1.873-0.095 0.661 0 1.285 0.037 1.872 0.095 12.785-4.188 26.229-4.401 39.179-2.651 0 0 0.474-0.462 1.044-0.748V26.009z" fill="#49977d" data-fill-palette-color="accent"></path></g></svg></g></svg></g></svg></g><defs></defs></svg><rect width="395.5199999999999" height="66.27674688338271" fill="none" stroke="none" visibility="hidden"></rect></g></svg></g></svg>